<?xml version="1.0" encoding="utf-8"?>
<!-- Generator: Adobe Illustrator 24.1.2, SVG Export Plug-In . SVG Version: 6.00 Build 0)  -->
<svg version="1.1" id="Capa_1" xmlns="http://www.w3.org/2000/svg" xmlns:xlink="http://www.w3.org/1999/xlink" x="0px" y="0px"
	 viewBox="0 0 93.7 15.4" style="enable-background:new 0 0 93.7 15.4;" xml:space="preserve">
<style type="text/css">
	.st0{fill:#FFFFFF;}
</style>
<path class="st0" d="M4,0.2h0.6c0.7,0.1,1.5,0.3,2.2,0.5h0.3c0.1,0,0.3-0.1,0.4-0.1l0.1,0.1L4.8,2.7c0,0-0.9,0.4-0.9,0.8v5.1l-2.8,2
	c0-0.3,0.4-0.5,0.4-0.9V4.6c0-0.4,2.7-1.8,2.7-2.2S2.6,1.6,2.6,1.6c-0.4,0-0.8,0-1.2,0C0.9,1.6,0.3,2,0.1,2C0.7,1.6,2.3,0.2,4,0.2"
	/>
<path class="st0" d="M9,2.8v3.3c0.7-0.4,1.2-0.7,1.2-1.2C10.2,4.1,9,2.8,9,2.8 M9,7.1v4.5c0,0.2,0.4,0.4,0.6,0.4s0,0.1,0.1,0V7.8
	C9.8,7.5,9.1,7.1,9,7.1 M9.8,0.3c0.4,0,0.7,0.5,1.5,1.5c0.2,0.2,1,1.3,1,1.8v0.4c0,1-2.7,2.1-2.7,2.5c0,0.4,1.4,0.2,2.1,0.6
	c0.5,0.4,0.9,1.1,0.9,1.7V10c0,0.7-1,1-2.2,2c-0.8,0.6-1.7,1.2-2.6,1.7c-1-0.6-2-1-3.1-1.2H3.2c-0.7,0.1-1.4,0.3-2.1,0.5
	c0,0,2.1-2.1,4.3-2.1h1.5C7.5,11,8,11.2,8.5,11.4V2.2c0-0.1-0.1-0.2-0.3-0.3c-0.4,0-0.7,0.7-0.7,0.8v5.5c0,0.3-1,1-1.5,1.3
	c-0.8,0.4-1.2,0.9-1.7,1v-0.1c0,0,0.4-0.4,0.4-0.7V3.8C5.4,3,6.2,2.3,7.2,1.9C8.2,1.3,9.3,0.3,9.8,0.3"/>
<path class="st0" d="M35.9,6.6v5l1.7,0.8v-5L35.9,6.6z M36.7,5.6l2.6,1.3v5.6l-2.4,1.1l-2.6-1V6.6L36.7,5.6z"/>
<path class="st0" d="M24.8,5.4l1.6,1.6v4.8l0.7,0.7l-1.2,1.2l-1.3-1.2V7.9c-0.3-0.3-0.6-0.6-0.9-0.8l-0.9,0.8v3.8l0.6,0.6l-1.2,1.2
	l-1.1-1V7.7c-0.3-0.2-0.5-0.5-0.8-0.7l1.5-1.6l1.5,1.4L24.8,5.4z"/>
<path class="st0" d="M30.8,5.6l2.8,1.2c-0.4,0.4-0.8,0.7-1.3,0.9L30,6.7v4.7l2,1c0.5-0.2,0.9-0.3,1.4-0.4c0,0,0.1,0,0.1,0v0.1
	l-2.2,1.4H31l-2.8-1.3V6.8L30.8,5.6z"/>
<path class="st0" d="M15.1,9.2v2.3l2.4,1.1v-2.2L15.1,9.2z M16.6,5.4c1.8,0.9,2.5,1,2.5,1.4v4.6l1.1,1.1l-1,1c-0.8-0.6-1-0.9-1-0.9
	l-1.9,0.9l-2.7-1.2V9.4l2.6-1.3l1.4,0.6V7.4l-2.3-0.8l-1.1,0.1V6.6L16.6,5.4z"/>
<path class="st0" d="M47.4,6.6v5l1.7,0.8v-5L47.4,6.6z M48.2,2.1c0.5,0.1,0.9,0.3,1.4,0.6c0.4,0.2,1.2,0.4,1.2,0.8v9l-2.4,1.1
	l-2.6-1.3V6.7l2.5-1.1c0.1,0,0.9,0.3,0.9,0.3V4l-2.1-0.9c-0.4,0-0.8,0.3-1.2,0.4L46,3.2C46.7,2.8,47.4,2.4,48.2,2.1"/>
<path class="st0" d="M53.8,6.9v2.8l1.6-1L53.8,6.9z M54.9,5.5l2.4,2.6l-3.4,2.5v0.7c0.6,0.4,1.3,0.8,2,1c0,0,1-0.7,1.5-0.4
	c-0.1,0.1-2.4,1.6-2.4,1.6l-2.6-1V6.7L54.9,5.5z"/>
<path class="st0" d="M71.9,4h0.3c0.9-0.5,1.7-1.1,2.5-1.7c-0.2,0-0.6,0.2-0.7,0.2h-0.5c-0.1-0.1-0.2-0.1-0.3-0.2
	c-0.1-0.1-0.7-1.2-1.5-1.2h-0.3c-0.8,0.3-1.5,0.7-2.1,1.2c-0.8,0.6-1.7,1-1.7,1.6v6.3c-0.1,0.1-0.2,0.2-0.3,0.4
	c0.1,0,0.4-0.2,1.5-0.9s1.2-1,1.2-1.2V2.4c0-0.1,0.1-0.2,0.2-0.2c0.3,0,0.5,0.6,0.5,0.7v8.8c-0.2-0.1,0.4,0.2-1,0.1
	c-0.9-0.1-1.7-0.4-2.4-0.8c-1.2-0.9-2-2.2-2.2-3.7c-0.1-2.1,0.7-2.8,1.8-4.2c0.8-0.9,2.7-1.8,2.8-2.1h-0.1l-0.4,0.2
	c-0.1,0-0.6,0-1,0c-2.9,0.2-5.4,3.1-5.2,6.7s2.5,5.9,5.7,5.8c1.6,0,3.2-0.7,4.2-2l0.5-1v-0.3h-0.1c-0.5,0.4-1.1,0.8-1.7,1h-0.1V3.6
	C71.4,3.8,71.7,4,71.9,4 M83.1,6.5l-1-1.1l0,0l-1.3,1.3l0.6,0.5v5.2l1.2,1.2l1.3-1.3l-0.7-0.6V6.5z M91.5,8.7l-1.6,1V6.9L91.5,8.7z
	 M93.2,12c-0.4,0.2-0.9,0.4-1.4,0.4l-2-0.9v-1l3.5-2.4c0-0.1-2.3-2.6-2.4-2.6c-0.9,0.4-1.7,0.8-2.5,1.4v5.6c0.8,0.5,1.7,0.9,2.6,1.2
	c1-0.4,1.9-0.9,2.8-1.5L93.2,12z M83.2,3.2L83.2,3.2L82,2l0,0l-1.3,1.3L82,4.5L83.2,3.2z M76.5,7.3V2l-1.8,1.7v8.6l1.2,1.2l1.3-1.3
	l0,0l-0.7-0.7v-4L77.4,7l0.7,0.7v7.5l0,0l1.8-1.7V6.8l-1.4-1.4L76.5,7.3z M86.6,2.2l-1.9,1.9v8.4l1.2,1.2l1.4-1.3l-0.6-0.6L86.6,2.2
	z"/>
</svg>
