<?xml version="1.0" encoding="utf-8"?>
<!-- Generator: Adobe Illustrator 24.1.2, SVG Export Plug-In . SVG Version: 6.00 Build 0)  -->
<svg version="1.1" id="Capa_1" xmlns="http://www.w3.org/2000/svg" xmlns:xlink="http://www.w3.org/1999/xlink" x="0px" y="0px"
	 viewBox="0 0 34.1 15.4" style="enable-background:new 0 0 34.1 15.4;" xml:space="preserve">
<style type="text/css">
	.st0{fill:#FFFFFF;}
</style>
<path class="st0" d="M0,13.8c0,0.8,0.6,1.4,1.4,1.5c0.1,0,0.2,0,0.3,0c0.9,0,1.6-0.8,1.5-1.7c0.1-1.1,0.7-2.2,1.6-2.8
	c1.4-1,2.8-1.8,4.2-2.6c2.4-1.3,3.9-2.8,4.3-4l0,0c0-0.2,0-0.3,0-0.5c0-0.8-0.6-1.4-1.4-1.5h-0.3c-0.4,0-0.8,0.2-1.1,0.5
	c-0.3,0.3-0.4,0.7-0.4,1.1c0,1.2-0.7,2-1.7,3c-1.3,1-2.6,1.8-4.1,2.5c-2.4,1.3-3.9,2.8-4.3,4l0,0C0,13.6,0,13.7,0,13.8"/>
<path class="st0" d="M9.6,9c0,0,1.7,0.5,1.2,2.9l0,0c0,0.1,0,0.3,0,0.4c0,0.7,0.7,1.3,1.4,1.2c0.7,0,1.3-0.7,1.2-1.4c0,0,0,0,0-0.1
	c-0.1-1.7-3.3-3.7-3.8-3.7c0,0-0.2,0-0.3,0.3C9.4,8.8,9.5,8.9,9.6,9"/>
<path class="st0" d="M9.1,9.8c0,0,1.1,0.3,0.8,1.9l0,0c0,0-0.3,1.5-2.8,1.9C4.4,14,4.4,13,4.4,13c0-0.5-0.2-1.1,2.5-2.7
	C6.9,10.3,8.3,9.4,9.1,9.8"/>
<path class="st0" d="M2.5,2.4c0.1,2.2,3.3,4.7,5.1,5.8C8,8.4,8.5,8.4,8.9,8.3c0.9-0.4-0.1-0.7-0.1-0.7S6,6.8,6.9,2.7l0,0
	c0-0.2,0-0.5,0-0.7C6.8,0.8,5.8-0.1,4.6,0C3.3,0.1,2.4,1.2,2.5,2.4L2.5,2.4"/>
<path class="st0" d="M32,14.3H34V5.3H32V14.3z M32.9,4.5c0.6,0,1.1-0.5,1.1-1.1c0-0.6-0.5-1.1-1.1-1.1c-0.6,0-1.1,0.5-1.1,1.1
	S32.3,4.5,32.9,4.5L32.9,4.5 M22.6,10.8c0.1-1-0.4-2-1.2-2.6c0.6-0.6,0.9-1.3,0.9-2.1c0-1.8-1-3.3-3.8-3.3h-4.1v11.5h4.1
	C21.5,14.3,22.6,12.7,22.6,10.8 M16.5,4.8h2c1.3,0,1.5,0.6,1.5,1.2c0,0.6-0.2,1.3-1.3,1.3h-2.1L16.5,4.8z M16.5,9.3h2.1
	c1.3,0,1.7,0.5,1.7,1.5c0,0.7-0.3,1.4-1.8,1.4h-2.1L16.5,9.3z M27.7,12.4c-1.3,0-2.4-1.2-2.4-2.5l0,0c0-1.3,1-2.4,2.3-2.5
	c0,0,0,0,0,0c0.7,0,1.4,0.3,1.8,0.9L31,6.8c-0.8-0.9-2-1.4-3.2-1.4c-2.5,0-4.5,2-4.4,4.5l0,0c0,2.5,2,4.5,4.4,4.5
	c1.2,0,2.3-0.5,3.2-1.3l-1.5-1.4C29,12.1,28.4,12.3,27.7,12.4"/>
</svg>
