<?xml version="1.0" encoding="utf-8"?>
<!-- Generator: Adobe Illustrator 24.1.2, SVG Export Plug-In . SVG Version: 6.00 Build 0)  -->
<svg version="1.1" id="Capa_1" xmlns="http://www.w3.org/2000/svg" xmlns:xlink="http://www.w3.org/1999/xlink" x="0px" y="0px"
	 viewBox="0 0 152.3 15.4" style="enable-background:new 0 0 152.3 15.4;" xml:space="preserve">
<style type="text/css">
	.st0{fill:#FFFFFF;}
</style>
<g id="Group_1850" transform="translate(-14.173 -24.102)">
	<rect id="Rectangle_1623" x="95.7" y="24.4" class="st0" width="14.5" height="2.1"/>
	<rect id="Rectangle_1624" x="95.7" y="28.6" class="st0" width="14.5" height="2.1"/>
	<rect id="Rectangle_1625" x="95.7" y="32.7" class="st0" width="14.5" height="2.1"/>
	<rect id="Rectangle_1626" x="95.7" y="36.9" class="st0" width="14.5" height="2.1"/>
	<path id="Path_616" class="st0" d="M117.5,24.4h5.8c2.1-0.2,4,1.4,4.1,3.6c0,0,0,0.1,0,0.1c0.1,1.3-0.7,2.4-1.9,2.9
		c1.8,0.3,3,1.8,2.9,3.6c0,2.3-1.8,4.3-4.2,4.3c-0.1,0-0.2,0-0.2,0h-6.6L117.5,24.4L117.5,24.4z M122.8,30.2c0.8,0,1.5-0.7,1.5-1.5
		c0-0.8-0.7-1.5-1.5-1.5h-2.1v3.1L122.8,30.2L122.8,30.2z M123.4,36.2c1,0.1,1.8-0.7,1.9-1.7c0,0,0-0.1,0-0.1c0-1-0.8-1.7-1.8-1.7
		c0,0-0.1,0-0.1,0h-2.8v3.5H123.4z"/>
	<rect id="Rectangle_1627" x="132.3" y="24.4" class="st0" width="3.2" height="14.5"/>
	<path id="Path_617" class="st0" d="M147.1,24.2c2.3,0,4.4,1,5.9,2.7l-2.2,1.9c-0.9-1.1-2.3-1.7-3.7-1.6c-2.5,0-4.6,2.1-4.6,4.6
		s2.1,4.6,4.6,4.6c1.4,0,2.8-0.6,3.7-1.7l2.2,1.9c-1.5,1.7-3.6,2.7-5.9,2.7c-4.1,0.2-7.6-3.1-7.8-7.2c-0.2-4.1,3.1-7.6,7.2-7.8
		C146.7,24.2,146.9,24.2,147.1,24.2"/>
	<path id="Path_618" class="st0" d="M156.4,24.4h9.9v2.9h-6.7v2.7h6.3v2.9h-6.3v3.1h6.9V39h-10.1L156.4,24.4L156.4,24.4z"/>
	<path id="Path_619" class="st0" d="M14.2,24.4h4.4c2-0.1,3.7,1.5,3.7,3.4c0,0.1,0,0.1,0,0.2c0.1,1.3-0.7,2.6-2,3.1
		c1.8,0.3,3.2,1.9,3.1,3.8c0,2.3-1.8,4.2-4.1,4.2c-0.1,0-0.1,0-0.2,0h-4.9V24.4z M18.5,30.7c1.5,0,2.7-1.2,2.7-2.6s-1.2-2.7-2.6-2.7
		l0,0h-3.2v5.3L18.5,30.7L18.5,30.7z M19,38c1.8,0,3.2-1.4,3.2-3.1c0-1.8-1.4-3.2-3.1-3.2c-0.1,0-0.1,0-0.2,0h-3.7V38H19z"/>
	<path id="Path_620" class="st0" d="M32,24.4h0.9l6,14.7h-1.2L36,35h-7.3l-1.6,4h-1.2L32,24.4z M35.6,34l-3.2-8l-3.2,8H35.6z"/>
	<path id="Path_621" class="st0" d="M42.7,24.4h0.9l9.3,12.7V24.4H54V39h-0.9l-9.4-12.8V39h-1.1V24.4z"/>
	<path id="Path_622" class="st0" d="M65.8,24.1c2.1,0,4.2,0.9,5.6,2.5l-0.7,0.7c-1.2-1.4-3-2.2-4.9-2.2c-3.6,0.1-6.6,3.1-6.5,6.7
		c0.1,3.6,2.9,6.4,6.5,6.5c1.9,0,3.7-0.8,4.9-2.2l0.8,0.7c-1.4,1.6-3.5,2.5-5.6,2.5c-4.2,0-7.6-3.4-7.6-7.6S61.6,24.1,65.8,24.1
		L65.8,24.1"/>
	<path id="Path_623" class="st0" d="M81.9,24.1c4.2,0,7.6,3.4,7.6,7.6s-3.4,7.6-7.6,7.6c-4.2,0-7.6-3.4-7.6-7.6v0
		c-0.1-4.1,3.2-7.5,7.3-7.6C81.8,24.1,81.8,24.1,81.9,24.1 M81.9,38.3c3.6-0.1,6.5-3.1,6.4-6.7c-0.1-3.5-2.9-6.4-6.4-6.4
		c-3.6,0-6.6,2.9-6.6,6.6S78.3,38.3,81.9,38.3"/>
</g>
</svg>
