<?xml version="1.0" encoding="utf-8"?>
<!-- Generator: Adobe Illustrator 24.1.2, SVG Export Plug-In . SVG Version: 6.00 Build 0)  -->
<svg version="1.1" id="Capa_1" xmlns="http://www.w3.org/2000/svg" xmlns:xlink="http://www.w3.org/1999/xlink" x="0px" y="0px"
	 viewBox="0 0 15.4 15.4" style="enable-background:new 0 0 15.4 15.4;" xml:space="preserve">
<style type="text/css">
	.st0{fill:#FFFFFF;}
	.st1{fill:#636362;}
	.st2{fill-rule:evenodd;clip-rule:evenodd;fill:#636362;}
</style>
<path class="st0" d="M2.6,0h10.3c1.4,0,2.6,1.2,2.6,2.6v10.2c0,1.4-1.2,2.6-2.6,2.6l0,0H2.6c-1.4,0-2.6-1.1-2.6-2.6c0,0,0,0,0,0V2.5
	C0,1.1,1.2,0,2.6,0"/>
<rect x="1.3" y="7.7" class="st1" width="1.2" height="5.1"/>
<path class="st1" d="M7.8,8.8C7.3,8.8,6.8,9,6.3,9.2L6.5,10c0.4-0.2,0.7-0.3,1.1-0.3c0.7,0,0.8,0.4,0.8,0.5v0
	c-1.5,0-2.5,0.5-2.5,1.5c0,0.7,0.6,1.2,1.3,1.2c0,0,0,0,0.1,0c0.5,0,0.9-0.2,1.2-0.5l0,0l0.1,0.4h1v-2.3C9.7,9.7,9,8.9,8.2,8.8
	C8.1,8.8,7.9,8.8,7.8,8.8 M8.5,11.4c0,0.1,0,0.1,0,0.2c0,0,0,0,0,0l0,0c-0.1,0.3-0.4,0.5-0.8,0.5c-0.3,0-0.6-0.2-0.6-0.5
	S7.5,11.1,8,11h0.4h0.2L8.5,11.4z"/>
<path class="st1" d="M12.9,9v2.3c0,0.1,0,0.2,0,0.2c-0.1,0.3-0.4,0.5-0.7,0.5c-0.5,0-0.7-0.4-0.7-1V9h-1.2v2.3c0,0.3,0,0.5,0.1,0.8
	c0.1,0.2,0.2,0.4,0.3,0.5c0.1,0.1,0.3,0.2,0.5,0.3c0.2,0.1,0.4,0.1,0.6,0.1c0.2,0,0.3,0,0.5-0.1c0.1,0,0.3-0.1,0.4-0.2
	c0.1-0.1,0.2-0.1,0.3-0.2c0.1-0.1,0.1-0.1,0.2-0.2l0.1,0.5h1V9H12.9z"/>
<path class="st1" d="M3.6,7.7V9H3.1v0.9h0.5v1.6c0,0.4,0.1,0.8,0.3,1.1c0.3,0.2,0.6,0.4,0.9,0.4c0.2,0,0.4,0,0.7-0.1v-0.9
	c-0.1,0-0.2,0-0.2,0c-0.4,0-0.5-0.3-0.5-0.7V9.8h0.7V9H4.8V7.7H3.6z"/>
<polygon class="st2" points="12.5,7.7 11.8,8.7 12.6,8.7 13.6,7.7 "/>
</svg>
