<?xml version="1.0" encoding="utf-8"?>
<!-- Generator: Adobe Illustrator 24.1.2, SVG Export Plug-In . SVG Version: 6.00 Build 0)  -->
<svg version="1.1" id="Capa_1" xmlns="http://www.w3.org/2000/svg" xmlns:xlink="http://www.w3.org/1999/xlink" x="0px" y="0px"
	 viewBox="0 0 89.1 15.4" style="enable-background:new 0 0 89.1 15.4;" xml:space="preserve">
<style type="text/css">
	.st0{fill:#FFFFFF;}
</style>
<path class="st0" d="M11.9,7.1c0-0.5-0.2-1.1-0.5-1.6L9,1.3C8.8,1,8.7,0.7,8.6,0.3L8.5,0.5c-0.6,1.1-0.6,2.4,0,3.4l2,3.4
	c0.6,1.1,0.6,2.4,0,3.4l-0.1,0.2c-0.1-0.4-0.2-0.7-0.4-1L8.2,6.8L7,4.8c-0.2-0.3-0.3-0.7-0.4-1L6.5,4C5.9,5,5.9,6.3,6.5,7.4l2,3.4
	c0.6,1.1,0.6,2.4,0,3.4l-0.1,0.2c-0.1-0.4-0.2-0.7-0.4-1L5.6,9.1C5.3,8.5,5.1,7.9,5.1,7.2c-2.6,0.7-4.5,2.1-4.5,3.8
	c0,2.4,3.5,4.3,7.9,4.3s7.8-2.1,7.8-4.4C16.3,9.2,14.5,7.8,11.9,7.1 M19.3,14.4c0-0.5,0.1-1,0.3-1.5c0.9,0.4,1.8,0.6,2.7,0.6
	c1.4,0,2.1-0.5,2.1-1.3s-0.6-1.2-2-1.9l-0.8-0.3c-1.4-0.6-2.3-1.4-2.3-3s1.2-2.8,3.6-2.8c0.9,0,1.8,0.1,2.7,0.4c0,0.5-0.1,1-0.3,1.5
	c-0.8-0.3-1.6-0.4-2.4-0.4c-1.3,0-1.9,0.5-1.9,1.3s0.6,1.2,1.6,1.6l0.8,0.3c1.9,0.8,2.7,1.6,2.7,3.1c0,1.7-1.3,2.9-3.8,2.9
	C21.3,14.9,20.3,14.7,19.3,14.4 M34.1,7.3v7.4h-1.5l-0.1-0.9c-0.4,0.7-1.2,1.1-2.1,1.1c-2,0-3.2-1.4-3.2-3.9s1.4-4.1,4.1-4.1
	C32.2,6.9,33.2,7,34.1,7.3 M32.5,13V8.4c-0.4-0.1-0.7-0.1-1.1-0.1c-1.7,0-2.5,1-2.5,2.7c0,1.5,0.6,2.6,2,2.6
	C31.4,13.6,32,13.4,32.5,13 M42.4,9.7v5h-1.7V10c0-1.2-0.4-1.7-2-1.7c-0.4,0-0.9,0-1.3,0.1v6.3h-1.6V7.3c1-0.2,2-0.4,3-0.4
	C41.6,6.9,42.4,7.9,42.4,9.7 M47,13.5c0.4,0,0.8-0.1,1.2-0.2c0,0.5-0.1,0.9-0.2,1.4c-0.4,0.2-0.9,0.2-1.4,0.2
	c-1.2,0.2-2.4-0.7-2.6-1.9c0-0.2,0-0.5,0-0.7V4.6c0.5-0.2,1.1-0.3,1.6-0.3v2.8h2.6c0,0.5-0.1,0.9-0.2,1.4h-2.4v3.6
	C45.7,13.1,46.1,13.4,47,13.5 M55.6,7.3v7.4h-1.5l-0.1-0.9c-0.4,0.7-1.2,1.1-2.1,1.1c-2,0-3.3-1.4-3.3-3.9s1.4-4.1,4.1-4.1
	C53.8,6.9,54.7,7,55.6,7.3 M54,13V8.4c-0.4-0.1-0.8-0.1-1.2-0.1c-1.7,0-2.5,1-2.5,2.7c0,1.5,0.6,2.6,2,2.6C53,13.5,53.5,13.4,54,13
	 M63.9,9.7v5h-1.6V10c0-1.2-0.4-1.7-2-1.7c-0.4,0-0.9,0-1.3,0.1v6.3h-1.6V7.3c1-0.2,2-0.4,3-0.4C63.1,6.9,64,7.9,63.9,9.7 M72.2,4.3
	v10.4h-1.5l-0.1-1c-0.4,0.8-1.2,1.2-2.1,1.1c-2,0-3.3-1.4-3.3-3.9s1.4-4.1,4.1-4.1c0.4,0,0.8,0,1.2,0.1V4.6
	C71.1,4.4,71.7,4.3,72.2,4.3 M70.6,12.9V8.4c-0.4-0.1-0.8-0.1-1.3-0.1c-1.6,0-2.4,1-2.4,2.7c0,1.5,0.6,2.6,2,2.6
	C69.5,13.6,70.1,13.4,70.6,12.9 M80.4,11.6h-5.2c0.1,1.2,1.1,2,2.3,2c0.1,0,0.1,0,0.2,0c0.9,0,1.8-0.2,2.6-0.6
	c-0.1,0.4-0.1,1-0.2,1.5c-0.8,0.3-1.6,0.5-2.4,0.5c-2.7,0-4-1.5-4-4c0-2.2,1-3.9,3.6-3.9c1.7-0.1,3.2,1.2,3.3,2.9c0,0.2,0,0.3,0,0.5
	C80.5,10.7,80.4,11.1,80.4,11.6 M75.2,10.2h3.7c0.1-0.9-0.5-1.8-1.5-1.9c-0.1,0-0.2,0-0.3,0C75.9,8.3,75.3,9,75.2,10.2 M86.1,7
	c0,0.4-0.1,0.9-0.2,1.3c-0.4,0-0.8,0-1.2,0c-0.4,0-0.8,0-1.2,0.1v6.3h-1.6V7.3c0.9-0.3,1.8-0.4,2.8-0.4C85.1,6.9,85.6,6.9,86.1,7"/>
<path class="st0" d="M88.7,4.3c-0.2-0.2-0.6-0.4-0.9-0.4c-0.3,0-0.6,0.1-0.9,0.4c-0.2,0.2-0.4,0.6-0.4,0.9c0,0.7,0.6,1.3,1.3,1.3
	l0,0c0.3,0,0.7-0.1,0.9-0.4c0.2-0.2,0.4-0.6,0.4-0.9C89.1,4.9,89,4.5,88.7,4.3 M88.6,6c-0.2,0.2-0.5,0.3-0.8,0.3
	c-0.3,0-0.6-0.1-0.8-0.3c-0.4-0.4-0.4-1.1,0-1.6c0,0,0,0,0,0c0.2-0.2,0.5-0.3,0.8-0.3c0.6,0,1.1,0.5,1.1,1.1c0,0,0,0,0,0
	C88.9,5.5,88.8,5.8,88.6,6"/>
<path class="st0" d="M87.8,5.3h-0.2v0.5h-0.2V4.5c0.1,0,0.2,0,0.3,0c0.4,0,0.5,0.2,0.5,0.4c0,0.2-0.1,0.3-0.3,0.4l0.3,0.5h-0.2
	L87.8,5.3z M87.8,5.1c0.2,0,0.3-0.1,0.3-0.2S88,4.6,87.8,4.6h-0.2v0.5H87.8z"/>
</svg>
