<?xml version="1.0" encoding="utf-8"?>
<!-- Generator: Adobe Illustrator 24.1.2, SVG Export Plug-In . SVG Version: 6.00 Build 0)  -->
<svg version="1.1" id="Capa_1" xmlns="http://www.w3.org/2000/svg" xmlns:xlink="http://www.w3.org/1999/xlink" x="0px" y="0px"
	 viewBox="0 0 82.3 15.4" style="enable-background:new 0 0 82.3 15.4;" xml:space="preserve">
<style type="text/css">
	.st0{fill:#FFFFFF;}
</style>
<path class="st0" d="M33.4,5.8c-1.9,0-3.4,1.5-3.4,3.4s1.5,3.4,3.4,3.4c1.9,0,3.4-1.5,3.4-3.4S35.3,5.8,33.4,5.8L33.4,5.8z
	 M33.4,10.7c-0.8,0-1.5-0.7-1.5-1.5s0.7-1.5,1.5-1.5c0.8,0,1.5,0.7,1.5,1.5c0,0,0,0,0,0C34.9,10,34.2,10.7,33.4,10.7z"/>
<polygon class="st0" points="41,6 40.1,6 40.1,4 38.1,4 38.1,6 37.2,6 37.2,7.8 38.1,7.8 38.1,12.4 40.1,12.4 40.1,7.8 41,7.8 "/>
<rect x="42" y="6" class="st0" width="2" height="6.4"/>
<path class="st0" d="M43,2.9c-0.6,0-1.1,0.5-1.1,1.1c0,0.6,0.5,1.1,1.1,1.1c0.6,0,1.1-0.5,1.1-1.1c0,0,0,0,0,0
	C44.1,3.4,43.6,2.9,43,2.9z"/>
<path class="st0" d="M71.8,7.7c0.7,0,1.2,0.5,1.2,1.2v3.5h2V8.6c0.2-1.4-0.8-2.6-2.2-2.8c-0.1,0-0.2,0-0.3,0c-0.8,0-1.5,0.5-1.9,1.2
	V6h-2v6.4h2V8.9C70.6,8.2,71.1,7.7,71.8,7.7C71.8,7.7,71.8,7.7,71.8,7.7z"/>
<polygon class="st0" points="82.3,12.4 79.8,9.2 82.1,6 79.8,6 77.9,8.6 77.9,3 75.9,3 75.9,12.4 77.9,12.4 77.9,9.7 79.9,12.4 "/>
<path class="st0" d="M23.1,10.7c0.2-0.4,0.2-0.8,0.2-1.2c0-0.6-0.2-1.2-0.6-1.6c-0.6-0.6-1.4-1-2.2-1.2c-0.2-0.1-0.4-0.1-0.6-0.2
	c-0.2-0.1-0.3-0.2-0.4-0.3c-0.1-0.1-0.2-0.3-0.2-0.5c0-0.3,0.2-0.5,0.4-0.7c0.5-0.2,1.1-0.2,1.6,0c0.2,0.1,0.4,0.2,0.6,0.3l0.9-1.7
	c-0.4-0.2-0.8-0.4-1.2-0.6c-0.4-0.1-0.9-0.2-1.4-0.2c-0.4,0-0.9,0.1-1.3,0.2c-0.4,0.1-0.7,0.4-1,0.6c-0.3,0.3-0.5,0.6-0.6,1
	c-0.1,0.4-0.2,0.8-0.2,1.2c0,0.6,0.3,1.2,0.8,1.7c0.4,0.4,1,0.7,1.5,0.9l0.8,0.3c0.2,0.1,0.4,0.2,0.5,0.3C20.9,9,21,9.2,21.1,9.3
	c0.1,0.1,0.1,0.3,0.1,0.4c0,0.2-0.1,0.4-0.3,0.5c-0.3,0.2-0.6,0.3-0.9,0.2c-0.4,0-0.8-0.1-1.1-0.3c-0.3-0.1-0.6-0.3-0.9-0.5l-1,1.8
	c0.8,0.6,1.8,1,2.8,1c0.5,0,1-0.1,1.5-0.2c0.4-0.1,0.8-0.4,1.2-0.6C22.7,11.4,23,11,23.1,10.7z"/>
<path class="st0" d="M28.6,10.1c-0.5,0.6-1.4,0.7-2.1,0.2c-0.6-0.5-0.7-1.4-0.2-2.1s1.4-0.7,2.1-0.2c0.1,0.1,0.2,0.1,0.2,0.2L30,6.9
	c-1.2-1.4-3.4-1.6-4.8-0.3s-1.6,3.4-0.3,4.8c0.7,0.8,1.6,1.2,2.6,1.2c0.9,0,1.8-0.4,2.5-1.1L28.6,10.1z"/>
<path class="st0" d="M51.8,12.4V6h-2v0.7l-0.2-0.2c-0.5-0.4-1.1-0.7-1.7-0.7c-1.9,0-3.4,1.5-3.4,3.4c0,1.9,1.5,3.4,3.4,3.4
	c0.6,0,1.2-0.2,1.7-0.7l0.2-0.2v0.7H51.8z M48.3,10.7c-0.8,0-1.5-0.7-1.5-1.5s0.7-1.5,1.5-1.5c0.8,0,1.5,0.7,1.5,1.5c0,0,0,0,0,0
	C49.8,10,49.2,10.7,48.3,10.7z"/>
<path class="st0" d="M67.6,12.4V6h-1.9v0.7l-0.2-0.2c-0.5-0.4-1.1-0.7-1.7-0.7c-1.9,0-3.4,1.5-3.4,3.4c0,1.9,1.5,3.4,3.4,3.4
	c0.6,0,1.2-0.2,1.7-0.7l0.2-0.2v0.7H67.6z M64.1,10.7c-0.8,0-1.5-0.7-1.5-1.5c0-0.8,0.7-1.5,1.5-1.5c0.8,0,1.5,0.7,1.5,1.5
	C65.6,10,64.9,10.7,64.1,10.7z"/>
<path class="st0" d="M54.8,12.4v-0.7l0.2,0.2c0.5,0.4,1.1,0.7,1.7,0.7c1.9-0.1,3.2-1.8,3.1-3.6c-0.1-1.7-1.4-3-3.1-3.1
	c-0.6,0-1.2,0.2-1.7,0.7l-0.2,0.2V3h-2v9.3H54.8z M54.8,9.2c0-0.8,0.7-1.5,1.5-1.5s1.5,0.7,1.5,1.5c0,0.8-0.7,1.5-1.5,1.5
	c0,0,0,0,0,0C55.5,10.7,54.9,10,54.8,9.2L54.8,9.2z"/>
<path class="st0" d="M11.3,2.9H7c-2.5,0-4.5,1.8-4.8,4.3l0,0C0.9,4.8,1.7,1.9,4.1,0.6C4.8,0.2,5.6,0,6.4,0h7.5L11.3,2.9z"/>
<path class="st0" d="M2.6,12.5H7c2.5,0,4.5-1.9,4.8-4.3l0,0c1.3,2.3,0.4,5.3-1.9,6.6c-0.7,0.4-1.5,0.6-2.3,0.6H0L2.6,12.5z"/>
<circle class="st0" cx="7" cy="7.7" r="3.9"/>
</svg>
