<?xml version="1.0" encoding="utf-8"?>
<!-- Generator: Adobe Illustrator 17.0.0, SVG Export Plug-In . SVG Version: 6.00 Build 0)  -->
<!DOCTYPE svg PUBLIC "-//W3C//DTD SVG 1.1//EN" "http://www.w3.org/Graphics/SVG/1.1/DTD/svg11.dtd">
<svg version="1.1" id="Layer_1" xmlns="http://www.w3.org/2000/svg" xmlns:xlink="http://www.w3.org/1999/xlink" x="0px" y="0px"
	 width="612px" height="792px" viewBox="0 0 612 792" enable-background="new 0 0 612 792" xml:space="preserve">
<g transform="translate(0,-952.36218)">
	<g>
		<path fill="#FFFFFF" d="M489.6,1222.286c0-18.133-13.6-31.734-31.733-31.734h-52.133v-13.599c0-56.667-45.333-102-102-102
			s-102,45.333-102,102v13.599H149.6c-18.133,0-31.733,13.599-31.733,31.734l-13.6,367.2c0,18.133,13.6,31.734,31.733,31.734h333.2
			c18.133,0,31.733-13.599,31.733-31.734L489.6,1222.286z M215.333,1176.952c0-49.867,40.8-88.401,90.667-88.401
			s90.667,38.534,90.667,88.401v13.599H215.333V1176.952z M457.867,1201.887c11.333,0,18.133,9.067,18.133,18.133l13.6,367.2
			c0,11.333-9.067,18.133-18.133,18.133h-333.2c-11.333,0-20.4-9.067-18.133-18.133l13.6-367.2c0-11.333,9.067-18.133,18.133-18.133
			H204h13.6H457.867z"/>
		<path fill="#FFFFFF" d="M469.2,1625.752H138.267c-11.333,0-20.4-4.534-27.2-11.333c-6.8-6.8-11.333-15.867-11.333-27.2
			l13.6-364.933c0-20.401,18.133-36.266,38.533-36.266H197.2v-6.8c0-58.933,47.6-106.534,108.8-106.534s108.8,47.599,108.8,106.534
			v6.8h45.333c20.4,0,36.267,15.867,38.533,36.266l13.6,367.2c0,9.067-2.267,18.133-11.333,27.2
			C489.6,1621.22,480.533,1625.752,469.2,1625.752z M149.6,1195.085c-13.6,0-24.933,11.333-27.2,24.933l-11.333,369.468
			c0,6.8,2.267,13.599,6.8,18.133c4.533,4.534,11.333,9.067,20.4,9.067h333.2c6.8,0,13.6-2.266,20.4-9.067
			c4.533-4.534,6.8-11.333,6.8-18.133l-13.6-367.2c0-13.599-11.333-24.933-27.2-24.933H401.2v-18.133
			c0-52.133-43.067-95.2-97.467-95.2s-97.467,43.067-97.467,95.2v18.133H149.6V1195.085z M469.2,1614.419H138.267
			c-6.8,0-13.6-2.266-18.133-6.8c-4.533-6.8-6.8-13.599-6.8-18.133l13.6-367.2c0-13.599,11.333-24.933,24.933-24.933h306
			c13.6,0,24.933,11.333,24.933,24.933l13.6,367.2c0,6.8-2.267,11.333-6.8,15.867C482.8,1609.887,476,1614.419,469.2,1614.419z
			 M149.6,1208.686c-6.8,0-13.6,6.8-13.6,13.599l-11.333,367.2c0,2.266,0,6.8,4.533,9.067c2.267,2.266,6.8,4.534,9.067,4.534h333.2
			c4.533,0,6.8-2.266,9.067-4.534c2.267-2.266,4.533-4.534,4.533-9.067l-13.6-367.2c0-9.067-6.8-13.599-13.6-13.599H149.6z
			 M398.933,1195.085h-190.4v-18.133c0-52.133,43.067-95.2,95.2-95.2s95.2,43.067,95.2,95.2L398.933,1195.085L398.933,1195.085z
			 M219.867,1183.752H387.6v-6.8c0-45.333-38.533-83.867-83.867-83.867s-83.867,36.266-83.867,83.867L219.867,1183.752
			L219.867,1183.752z"/>
	</g>
</g>
</svg>
