<?xml version="1.0" encoding="utf-8"?>
<!-- Generator: Adobe Illustrator 17.0.0, SVG Export Plug-In . SVG Version: 6.00 Build 0)  -->
<!DOCTYPE svg PUBLIC "-//W3C//DTD SVG 1.1//EN" "http://www.w3.org/Graphics/SVG/1.1/DTD/svg11.dtd">
<svg version="1.1" id="Layer_1" xmlns="http://www.w3.org/2000/svg" xmlns:xlink="http://www.w3.org/1999/xlink" x="0px" y="0px"
	 width="30px" height="30px" viewBox="0 0 612 792" enable-background="new 0 0 612 792" xml:space="preserve">
<path fill="#FFFFFF" d="M308.267,430c77.067,0,140.533-77.067,140.533-170c0-88.4-58.933-149.6-140.533-149.6
	S167.733,171.6,167.733,260C167.733,352.933,231.2,430,308.267,430z M308.267,135.333c68,0,115.6,49.867,115.6,124.667
	c0,79.333-52.133,145.067-115.6,145.067s-115.6-65.733-115.6-145.067C192.667,185.2,240.267,135.333,308.267,135.333z
	 M324.133,473.067H292.4c-140.533,0-235.733,81.6-235.733,201.733c0,6.8,6.8,13.6,13.6,13.6s13.6-6.8,13.6-13.6
	c0-106.533,81.6-174.533,210.8-174.533H326.4c126.933,0,210.8,68,210.8,174.533c0,6.8,6.8,13.6,13.6,13.6c6.8,0,13.6-6.8,13.6-13.6
	C559.867,552.4,464.667,473.067,324.133,473.067z"/>
</svg>
